# xmcd
#
# Track frame offsets: 
#        182
#        16207
#        34602
#        51132
#        69055
#        86345
#        109292
#        124560
#        143792
#        158355
#        178470
#        193537
#        211952
#        223520
#        254897
#
# Disc length: 3628 seconds
#
# Revision: 4
# Processed by: cddbd v1.5.1PL0 Copyright (c) Steve Scherf et al.
# Submitted via: ExactAudioCopy v0.95b3
#
DISCID=cd0e2a0f
DTITLE=Various Artist - 11. Il Suono Della Motor City. Motown
DYEAR=1996
DGENRE=Soul
TTITLE0=The Commodores - Brick House
TTITLE1=Dennis Edwards - Don't Look Any Further
TTITLE2=Diana Ross - Upside Down
TTITLE3=Marvin Gaye - Let's Get It On
TTITLE4=Eddie Kendricks - Boogie Down
TTITLE5=The Commodores - Nightshift
TTITLE6=Michael Jackson - Got To Be There
TTITLE7=Johnny Gill - Rub You The Right Way
TTITLE8=Marvin Gaye - Mercy, Mercy Me (The Ecology)
TTITLE9=Smokey Robinson - Cruisin'
TTITLE10=Rick James - Super Freak (Part 1)
TTITLE11=Marvin Gaye - Got To Give It Up
TTITLE12=The Supremes - Floy Joy
TTITLE13=The Temptations - Papa Was A Rollin' Stone
TTITLE14=Marvin Gaye - What's Going On
EXTD=by David K. (Opatija City) - Croatia
EXTT0=
EXTT1=
EXTT2=
EXTT3=
EXTT4=
EXTT5=
EXTT6=
EXTT7=
EXTT8=
EXTT9=
EXTT10=
EXTT11=
EXTT12=
EXTT13=
EXTT14=
PLAYORDER=
